HIERARCHY
ROOT Hips
{
    OFFSET 0.000000 0.000000 0.000000
    CHANNELS 6 Xposition Yposition Zposition Zrotation Xrotation Yrotation
    JOINT Spine
    {
        OFFSET -0.000000 14.517291 0.000000
        CHANNELS 3 Zrotation Xrotation Yrotation
        JOINT Spine1
        {
            OFFSET -0.000000 37.558300 0.000000
            CHANNELS 3 Zrotation Xrotation Yrotation
            JOINT Neck
            {
                OFFSET -0.000000 37.404057 3.400369
                CHANNELS 3 Zrotation Xrotation Yrotation
                JOINT Head
                {
                    OFFSET -0.000000 24.785618 -3.540803
                    CHANNELS 3 Zrotation Xrotation Yrotation
                    End Site
                    {
                        OFFSET -0.000000 35.408028 0.000000
                    }
                }
            }
            JOINT LeftShoulder
            {
                OFFSET 6.992933 33.973492 -0.192664
                CHANNELS 3 Zrotation Xrotation Yrotation
                JOINT LeftArm
                {
                    OFFSET 21.527611 0.000000 0.000000
                    CHANNELS 3 Zrotation Xrotation Yrotation
                    JOINT LeftForeArm
                    {
                        OFFSET 56.353916 0.000000 0.000000
                        CHANNELS 3 Zrotation Xrotation Yrotation
                        JOINT LeftHand
                        {
                            OFFSET 47.774071 0.000000 0.000000
                            CHANNELS 3 Zrotation Xrotation Yrotation
                            End Site
                            {
                                OFFSET 26.556021 0.000000 0.000000
                            }
                        }
                    }
                }
            }
            JOINT RightShoulder
            {
                OFFSET -7.065357 33.973492 -0.192664
                CHANNELS 3 Zrotation Xrotation Yrotation
                JOINT RightArm
                {
                    OFFSET -21.527611 0.000000 0.000000
                    CHANNELS 3 Zrotation Xrotation Yrotation
                    JOINT RightForeArm
                    {
                        OFFSET -56.353916 0.000000 0.000000
                        CHANNELS 3 Zrotation Xrotation Yrotation
                        JOINT RightHand
                        {
                            OFFSET -47.774071 0.000000 0.000000
                            CHANNELS 3 Zrotation Xrotation Yrotation
                            End Site
                            {
                                OFFSET -26.556021 0.000000 0.000000
                            }
                        }
                    }
                }
            }
        }
    }
    JOINT LeftUpLeg
    {
        OFFSET 17.704014 0.000000 0.000000
        CHANNELS 3 Zrotation Xrotation Yrotation
        JOINT LeftLeg
        {
            OFFSET -0.000000 -81.181816 0.000000
            CHANNELS 3 Zrotation Xrotation Yrotation
            JOINT LeftFoot
            {
                OFFSET -0.000000 -62.821102 0.000000
                CHANNELS 3 Zrotation Xrotation Yrotation
                JOINT LeftToeBase
                {
                    OFFSET -0.000000 -11.507608 26.556021
                    CHANNELS 3 Zrotation Xrotation Yrotation
                    End Site
                    {
                        OFFSET -0.000000 0.000000 7.081605
                    }
                }
            }
        }
    }
    JOINT RightUpLeg
    {
        OFFSET -17.704014 0.000000 0.000000
        CHANNELS 3 Zrotation Xrotation Yrotation
        JOINT RightLeg
        {
            OFFSET -0.000000 -81.181816 0.000000
            CHANNELS 3 Zrotation Xrotation Yrotation
            JOINT RightFoot
            {
                OFFSET -0.000000 -62.821102 0.000000
                CHANNELS 3 Zrotation Xrotation Yrotation
                JOINT RightToeBase
                {
                    OFFSET -0.000000 -11.507608 26.556021
                    CHANNELS 3 Zrotation Xrotation Yrotation
                    End Site
                    {
                        OFFSET -0.000000 0.000000 7.081605
                    }
                }
            }
        }
    }
}
MOTION
Frames:    13
Frame Time:    0.008333
21.565804    151.455322    -119.023003    -3.515727    2.158815    1.164194    3.894481    -2.938516    -5.250261    -1.544212    4.390359    -1.723982    12.867948    -15.862834    -1.791208    -2.101132    12.632627    -5.654728    9.718994    9.118145    -29.591629    -34.532093    24.198286    -36.742615    0.191489    -26.670610    -97.916069    10.624136    -26.705963    -2.792142    -14.537002    -7.348260    -3.543078    37.106419    -10.342658    87.841110    -6.899871    -14.912819    74.938011    -2.622153    -10.216674    20.998919    9.362700    2.551360    13.776021    -16.192955    37.262653    -3.887898    6.827148    -37.126743    54.078598    0.000000    0.000000    0.000000    -3.031188    -36.482868    14.561933    7.872084    21.637278    -7.159248    3.872509    16.072460    -9.048394    0.000000    0.000000    0.000000    
21.513622    151.461823    -119.050087    -3.517395    2.144598    1.167455    3.858813    -2.909387    -5.255231    -1.512577    4.373719    -1.726392    12.861695    -15.876557    -1.795084    -2.102824    12.634931    -5.658456    9.723901    9.106053    -29.606323    -34.524353    24.163908    -36.742851    0.171739    -26.664789    -97.915993    10.598238    -26.721378    -2.811131    -14.523947    -7.347095    -3.543675    37.079857    -10.334738    87.817352    -6.910729    -14.972032    74.940590    -2.600497    -10.265138    21.026213    9.395870    2.559923    13.780722    -16.205992    37.258305    -3.891567    6.806126    -37.115307    54.044003    0.000000    0.000000    0.000000    -3.007140    -36.475868    14.561427    7.865515    21.636242    -7.165894    3.889483    16.096661    -9.047924    0.000000    0.000000    0.000000    
21.488344    151.460403    -119.062355    -3.507995    2.137479    1.177515    3.850834    -2.914482    -5.260237    -1.527573    4.383156    -1.727384    12.886035    -15.865057    -1.795914    -2.135910    12.587413    -5.667093    9.735622    9.096810    -29.620123    -34.512489    24.117184    -36.757526    0.154393    -26.630556    -97.902809    10.697321    -26.704720    -2.781222    -14.508692    -7.358933    -3.553189    37.084541    -10.319135    87.805283    -6.899547    -14.991578    74.943169    -2.619341    -10.296971    21.040543    9.403756    2.567818    13.776340    -16.213303    37.248920    -3.893142    6.798803    -37.120731    54.026573    0.000000    0.000000    0.000000    -3.023395    -36.471893    14.535050    7.872448    21.629627    -7.158659    3.898357    16.103865    -9.055211    0.000000    0.000000    0.000000    
21.452335    151.462570    -119.073021    -3.505940    2.125062    1.193606    3.837579    -2.913602    -5.267868    -1.523871    4.391586    -1.729786    12.869212    -15.867827    -1.804190    -2.129326    12.569260    -5.671246    9.693561    9.166254    -29.612637    -34.355034    24.098774    -36.842152    0.211227    -26.715204    -97.857819    10.721038    -26.727806    -2.735246    -14.506948    -7.358805    -3.560533    37.096012    -10.304241    87.791702    -6.901651    -15.017155    74.958420    -2.579940    -10.312228    21.020580    9.424493    2.577714    13.777164    -16.211649    37.243843    -3.936265    6.813699    -37.097687    54.035076    0.000000    0.000000    0.000000    -3.028100    -36.459633    14.511244    7.883276    21.622684    -7.196486    3.877872    16.108072    -9.015363    0.000000    0.000000    0.000000    
21.417778    151.463272    -119.080009    -3.494743    2.105082    1.215220    3.816152    -2.909984    -5.277978    -1.522278    4.400419    -1.732910    12.884782    -15.857011    -1.804229    -2.161559    12.537410    -5.676245    9.686533    9.158293    -29.627369    -34.337849    24.062778    -36.848690    0.187506    -26.699724    -97.838371    10.798846    -26.736053    -2.707144    -14.491806    -7.356040    -3.560383    37.086025    -10.293550    87.776863    -6.923434    -15.046155    74.956161    -2.604256    -10.329435    21.007030    9.435678    2.601086    13.755606    -16.221788    37.226387    -3.979065    6.840629    -37.076637    54.050472    0.000000    0.000000    0.000000    -3.044317    -36.442146    14.467403    7.879863    21.634415    -7.187272    3.903394    16.088135    -9.010831    0.000000    0.000000    0.000000    
21.379271    151.464569    -119.088951    -3.486583    2.090772    1.242542    3.799469    -2.915695    -5.296667    -1.530128    4.415593    -1.738532    12.880932    -15.842824    -1.811775    -2.155031    12.496900    -5.681942    9.697846    9.155439    -29.626350    -34.316475    24.050577    -36.876087    0.176413    -26.734644    -97.818840    10.854517    -26.777571    -2.636734    -14.476826    -7.350306    -3.549096    37.102951    -10.291288    87.765358    -6.928405    -15.046067    74.961166    -2.648526    -10.332644    20.988110    9.453563    2.620658    13.721476    -16.238230    37.199230    -4.021723    6.855621    -37.067680    54.071552    0.000000    0.000000    0.000000    -3.068063    -36.430607    14.451593    7.910237    21.634438    -7.220071    3.887667    16.082838    -9.013723    0.000000    0.000000    0.000000    
21.340488    151.469925    -119.088890    -3.479325    2.061742    1.273396    3.772899    -2.911788    -5.309509    -1.511058    4.436127    -1.742977    12.862530    -15.841548    -1.816760    -2.154237    12.476298    -5.682021    9.726597    9.056952    -29.654570    -34.459606    24.027033    -36.815998    0.129141    -26.665817    -97.796066    10.834479    -26.758862    -2.661527    -14.484420    -7.341120    -3.555590    37.128410    -10.285796    87.770164    -6.931797    -15.036214    74.953087    -2.675021    -10.325338    20.978453    9.472224    2.664866    13.692315    -16.250391    37.155430    -4.050429    6.875662    -37.039272    54.066933    0.000000    0.000000    0.000000    -3.082649    -36.403801    14.384270    7.901648    21.652481    -7.200447    3.868904    16.078934    -8.980028    0.000000    0.000000    0.000000    
21.299810    151.474304    -119.084274    -3.464042    2.036038    1.314888    3.737755    -2.917464    -5.325016    -1.495247    4.461828    -1.748202    12.828166    -15.828707    -1.836924    -2.134943    12.445277    -5.691512    9.726086    9.044631    -29.669304    -34.450954    24.027416    -36.826946    0.125254    -26.697615    -97.779701    10.826431    -26.792610    -2.639357    -14.490185    -7.330713    -3.558691    37.143433    -10.279316    87.764267    -6.924907    -15.034381    74.961349    -2.697214    -10.331330    20.951490    9.483619    2.703557    13.689754    -16.226067    37.129131    -4.133683    6.858724    -37.033131    54.052814    0.000000    0.000000    0.000000    -3.120725    -36.376892    14.328005    7.925955    21.660650    -7.233145    3.821940    16.066181    -8.941076    0.000000    0.000000    0.000000    
21.254845    151.480194    -119.076370    -3.447475    2.003677    1.361528    3.693237    -2.920397    -5.347195    -1.462953    4.491235    -1.756116    12.783860    -15.828842    -1.842938    -2.113781    12.432037    -5.684398    9.711765    9.041906    -29.670744    -34.424026    24.063755    -36.851929    0.188626    -26.800142    -97.721962    10.672223    -26.830046    -2.673202    -14.508617    -7.313322    -3.561683    37.147846    -10.266560    87.773277    -6.948202    -15.049953    74.940384    -2.692059    -10.330850    20.959267    9.501055    2.752008    13.699219    -16.200676    37.102806    -4.239820    6.870103    -37.000450    54.032162    0.000000    0.000000    0.000000    -3.159532    -36.341297    14.260300    7.941564    21.673367    -7.235852    3.833082    16.039106    -8.937702    0.000000    0.000000    0.000000    
21.211939    151.487076    -119.070496    -3.429614    1.978231    1.418028    3.652248    -2.926641    -5.369298    -1.439682    4.515981    -1.763803    12.773817    -15.823650    -1.840438    -2.133607    12.407384    -5.679411    9.707051    9.039584    -29.678568    -34.406837    24.080687    -36.876888    0.189911    -26.862270    -97.706779    10.655070    -26.888977    -2.655546    -14.521416    -7.310122    -3.573382    37.174168    -10.253041    87.774841    -6.932342    -15.020417    74.940987    -2.717392    -10.317928    20.975975    9.515731    2.785443    13.664246    -16.208946    37.065811    -4.256707    6.862711    -36.975597    53.991901    0.000000    0.000000    0.000000    -3.202137    -36.316132    14.174632    7.944175    21.696672    -7.247852    3.802759    16.026615    -8.894061    0.000000    0.000000    0.000000    
21.163342    151.497467    -119.066116    -3.414916    1.952927    1.476787    3.613362    -2.925930    -5.385859    -1.426368    4.527545    -1.769339    12.795503    -15.827175    -1.828581    -2.179024    12.403172    -5.675373    9.720817    9.039215    -29.702719    -34.407642    24.091551    -36.890404    0.222473    -26.902420    -97.680420    10.680706    -26.894493    -2.631617    -14.515296    -7.294754    -3.576166    37.171314    -10.243191    87.766228    -6.922793    -15.015296    74.946358    -2.698543    -10.316013    20.981802    9.533045    2.822848    13.646330    -16.198494    37.020042    -4.317003    6.857089    -36.945976    53.979092    0.000000    0.000000    0.000000    -3.251542    -36.288288    14.108712    7.977796    21.706015    -7.286680    3.777444    16.011169    -8.875058    0.000000    0.000000    0.000000    
21.111607    151.509781    -119.053246    -3.402611    1.916098    1.552798    3.578947    -2.924489    -5.418578    -1.419954    4.551728    -1.779858    12.825889    -15.849935    -1.805473    -2.233872    12.426868    -5.664162    9.739354    9.052794    -29.698341    -34.388115    24.086037    -36.939293    0.237777    -26.937553    -97.651665    10.692719    -26.911488    -2.596204    -14.505585    -7.290310    -3.574985    37.144627    -10.225018    87.756813    -6.939141    -15.024794    74.935333    -2.723879    -10.319098    20.987417    9.558102    2.864666    13.627108    -16.181753    36.992863    -4.389773    6.845135    -36.916073    53.945435    0.000000    0.000000    0.000000    -3.303138    -36.243164    14.005928    7.983488    21.731827    -7.269638    3.783223    15.970213    -8.868529    0.000000    0.000000    0.000000    
21.055441    151.525986    -119.041550    -3.395160    1.886962    1.631032    3.534770    -2.928856    -5.442083    -1.393861    4.577526    -1.788057    12.845149    -15.861497    -1.801008    -2.278512    12.423655    -5.667996    9.757407    9.050203    -29.714167    -34.401478    24.080210    -36.966198    0.253265    -26.956060    -97.627228    10.660106    -26.915527    -2.619089    -14.496648    -7.285987    -3.591049    37.155483    -10.227650    87.750832    -6.907547    -14.962120    74.947609    -2.763858    -10.284350    20.948088    9.591467    2.902813    13.600202    -16.174419    36.947269    -4.439372    6.839833    -36.873634    53.906017    0.000000    0.000000    0.000000    -3.345825    -36.205910    13.880819    7.980177    21.755486    -7.264915    3.778031    15.941547    -8.840722    0.000000    0.000000    0.000000    
